<?xml version="1.0" standalone="no"?>
<!DOCTYPE svg PUBLIC "-//W3C//DTD SVG 1.1//EN" "http://www.w3.org/Graphics/SVG/1.1/DTD/svg11.dtd" >
<svg xmlns="http://www.w3.org/2000/svg">
<metadata>Generated by IcoMoon</metadata>
<defs>
<font id="bestortho" horiz-adv-x="1024">
<font-face units-per-em="1024" ascent="960" descent="-64" />
<missing-glyph horiz-adv-x="1024" />
<glyph unicode="&#x20;" horiz-adv-x="512" d="" />
<glyph unicode="&#xe900;" d="M116.48 712.755c0 0 224.082-56.668 242.135-81.295 18.063-24.637 55.347-111.462 91.044-120.351 35.676-8.888 83.395 18.432 88.248 47.77 4.864 29.317 46.111 105.247 7.649 124.365-38.482 19.108-5.304 63.683-169.605 78.612-164.311 14.92-232.008 46.95-235.233 44.933-3.236-2.017-24.238-94.034-24.238-94.034z" />
<glyph unicode="&#xe901;" d="M573.686 642.621c0 0 4.844-105.349-8.253-111.084-13.097-5.745 5.612-99.308 24.095-102.001 18.473-2.673 49.275 74.834 44.708 171.264 0.010 0-25.907 67.543-60.549 41.82z" />
<glyph unicode="&#xe902;" d="M453.673 488.745c0 0-76.769 1.495-94.976-35.625-18.196-37.13 16.916-66.826 16.916-66.826s39.014-5.929 27.945-322.232h91.279c0 0 5.663 197.12 77.22 368.077 0 0 5.222 38.799-46.838 47.698-52.040 8.909-71.547 8.909-71.547 8.909z" />
<glyph unicode="&#xe903;" d="M352.358 389.263c0 0-54.641-80.179-50.739-323.738h18.207c0 0 49.428 231.67 67.656 245.043 0.010-0.010-13.005 87.613-35.123 78.694z" />
<glyph unicode="&#xe904;" d="M211.231 400.476c43.51-124.897-16.333-249.262-33.075-374.641 16.814-6.42 33.413-13.425 49.644-21.412 5.99 66.826 26.46 130.386 39.956 195.85 15.954 77.261 15.944 157.542-11.827 231.363-22.702 60.344-60.14 106.342-110.049 138.578-34.458 22.262-71.946 37.786-108.984 54.211-9.308-16.998-19.282-33.618-29.286-50.186 82.575-37.468 167.741-70.707 203.622-173.763z" />
<glyph unicode="&#xe905;" d="M695.808 708.229c-121.231 169.349-322.447 219.136-506.132 251.884-10.271-17.879-20.173-35.994-29.635-54.426 173.496-29.921 361.114-70.748 484.844-221.092 39.291-47.749 66.458-105.329 76.657-170.015 10.906-69.12-10.691-139.274-40.366-198.42-16.138-32.164-36.956-60.877-55.337-91.361-18.371-30.484-35.297-62.085-51.835-93.901-22.323-43.039-43.5-86.825-65.27-130.253-5.437-10.844-10.906-21.678-16.425-32.471-0.891-9.769-11.295-21.637-16.497-33.536 36.434-5.929 67.645-17.797 78.582 37.263 7.711 15.36 15.37 30.792 23.020 46.213 15.299 30.853 30.577 61.686 46.428 92.201 35.901 69.161 82.657 131.144 114.985 202.486 61.102 134.871 39.711 279.859-43.018 395.428z" />
<glyph unicode="&#xe906;" d="M934.574 699.587c-0.727 0.788-1.485 1.526-2.202 2.335l-18.145-21.289c0.727-0.788 1.495-1.526 2.212-2.335 97.72-108.462 99.901-287.447 4.884-398.981l18.647-20.716c105.032 123.279 102.605 321.106-5.396 440.986z" />
<glyph unicode="&#xe907;" d="M898.294 656.998c-0.717 0.809-1.485 1.546-2.212 2.345l-18.145-21.289c0.737-0.799 1.495-1.526 2.243-2.335 77.128-85.627 78.848-226.939 3.83-315.003v0l18.647-20.685c85.023 99.789 83.077 259.922-4.362 356.966z" />
<glyph unicode="&#xe908;" d="M861.993 614.42c-0.686 0.809-1.464 1.546-2.202 2.345l-18.135-21.299c0.737-0.768 1.495-1.526 2.222-2.345 56.545-62.771 57.815-166.4 2.806-230.984l18.647-20.695c65.034 76.298 63.529 198.769-3.338 272.978z" />
<glyph unicode="&#xe909;" d="M531.384 545.946l0.696-0.512 3.4-2.519 0.686-0.522c0 0 384.020 383.59 404.736 399.811l-3.4 2.509-3.4 2.519-3.379 2.529z" />
<glyph unicode="&#xe90a;" d="M817.562 861.286l10.189 12.79c3.564 4.465 4.239 9.8 1.526 11.94-2.693 2.15-7.752 0.297-11.305-4.157l-39.158-49.162c-3.553-4.465-4.239-9.82-1.536-11.96 2.703-2.15 7.762-0.276 11.305 4.168l10.189 23.040 44.155-35.164 18.77 13.332-44.134 35.174z" />
<glyph unicode="&#xe90b;" d="M895.764 806.513l-24.904-29.86-38.308 6.728-13.404 36.598 24.924 29.87 38.298-6.748z" />
<glyph unicode="&#xe90c;" d="M608.358 920.781l-27.218 9.697-160.553-500.101c0 0 32.686-54.118 58.368 1.454 25.672 55.583 129.403 488.95 129.403 488.95z" />
<glyph unicode="&#xe90d;" d="M631.265 912.62l-126.464-477.87c0 0-0.246-42.383 38.666-13.773 0 0 4.475 28.744 4.577 46.899l113.295 434.012-30.075 10.732z" />
<glyph unicode="&#xe90e;" d="M551.721 357.345c0 0-91.075 52.685-123.167 43.909-32.102-8.786-15.053-63.427 0.215-58.737 15.258 4.669 40.745-52.961 68.516-48.701 27.771 4.25 54.436 63.529 54.436 63.529z" />
<glyph unicode="&#xe90f;" d="M491.622 225.044c0 0-21.924 177.725-170.834 71.004 0 0-38.042-91.617 36.28-118.108 0 0 73.052 56.904 84.357 40.735 11.315-16.179 56.453-21.371 50.196 6.369z" />
<glyph unicode="&#xe910;" d="M560.046 256.768c-11.008-9.902-24.883-8.704-30.986 2.683l-5.069 9.462c-6.103 11.387-2.12 28.641 8.888 38.543l27.843 25.037c10.998 9.902 24.883 8.704 30.986-2.693l5.069-9.462c6.093-11.377 2.12-28.641-8.899-38.543l-27.832-25.027z" />
<glyph unicode="&#xe911;" d="M606.034 278.364c0 0-41.585-32.737-40.704-47.217 0.881-14.459 27.453-50.227 33.71-44.38 6.246 5.868 49.439 50.606 54.815 59.075 5.366 8.479 23.163 22.436-47.821 32.522z" />
<glyph unicode="&#xe912;" d="M514.058 199.598c-5.704 9.81-5.1 22.825 1.352 29.061l5.376 5.202c6.451 6.257 16.323 3.379 22.016-6.42l14.438-24.771c5.714-9.81 5.1-22.835-1.352-29.092l-5.376-5.192c-6.461-6.246-16.333-3.369-22.026 6.431l-14.428 24.781z" />
<glyph unicode="&#xe913;" d="M709.949 70.595c-17.009 13.67-30.269 27.034-45.23 40.417-17.111 15.36-37.693 30.945-59.259 45.025-38.103 24.842-45.373 9.431-7.045-15.575 18.063-11.756 28.887-21.238 42.301-33.618 14.807-13.681 29.266-26.634 46.746-40.694 34.284-27.597 56.402-22.866 22.487 4.444z" />
<glyph unicode="&#xe914;" d="M768.594 119.101c-31.672 16.343-53.34 77.169-53.34 77.169-1.608 4.229 11.151 18.104-5.765 32.266-15.258 12.769-25.457-14.756-27.3-20.224-4.475-1.638-27.136-11.151-19.098-32.072 8.909-23.183 21.279-8.735 24.361-11.305 0 0 44.595-34.99 53.35-77.158 0 0-5.98-12.278 1.085-25.344 7.066-13.076 25.057-2.775 27.494 2.191 2.294 4.68 4.239 4.024 4.7 10.772 5.315-0.236 5.038 2.294 8.96 4.628 4.147 2.447 14.397 23.972 5.12 34.54-9.277 10.598-19.569 4.536-19.569 4.536z" />
<glyph unicode="&#xe915;" d="M862.228 52.091c-20.347-5.11-43.868 18.678-43.868 18.678-1.69 1.618 2.57 14.879-9.359 15.165-10.752 0.246-10.988-19.415-10.916-23.214-2.12-2.877-12.585-18.156-4.188-26.102 9.318-8.755 13.251 4.669 15.421 4.608 0 0 30.966 0.573 43.868-18.688 0 0-0.881-9.4 5.489-13.435 6.359-4.045 14.141 9.605 14.5 13.394 0.338 3.615 1.516 4.096 0.481 7.997 2.918 2.232 2.284 3.492 3.963 6.533 1.782 3.195 3.195 19.548-3.881 21.228-7.086 1.7-11.51-6.164-11.51-6.164z" />
<glyph unicode="&#xe916;" d="M961.925-1.915c-2.335-8.817-19.302-10.609-37.898-3.983-18.575 6.625-31.754 19.149-29.42 27.976 2.335 8.806 19.292 10.598 37.878 3.983 18.606-6.625 31.775-19.139 29.44-27.976z" />
<glyph unicode="&#xe917;" d="M909.353 12.616c-2.908-10.947-8.776-18.565-13.128-17.019-4.352 1.556-5.53 11.694-2.621 22.641s8.765 18.565 13.128 17.019c4.342-1.556 5.519-11.684 2.621-22.641z" />
<glyph unicode="&#xe918;" d="M990.351 38.205c-10.813 11.96-28.488 16.179-41.728 23.398-15.411 8.417-30.126 18.432-44.493 28.959-110.715 81.029-183.89 214.405-270.95 324.383-1.178 1.485-2.458 2.509-3.779 3.205-3.994 5.243-6.543 10.332-8.1 16.916 0.143 0.625 0.297 1.229 0.358 1.925 1.649 16.527 5.048 32.584 9.871 48.087 3.625 0.768 6.932 3.482 8.417 8.745 34.683 121.917 75.96 241.121 112.589 362.23 4.905 16.23-17.070 24.003-21.965 7.823-33.608-111.155-71.076-220.713-103.823-332.206-1.823-0.993-3.471-2.785-4.69-5.591-11.561-26.726-19.415-54.364-22.835-83.917-1.178-2.734-1.628-5.908-1.096-9.124 2.058-12.739 7.567-24.392 15.104-33.884 1.188-1.495 2.468-2.54 3.789-3.236 70.492-89.19 131.164-188.846 209.275-269.722 37.868-39.219 79.872-71.649 126.218-95.734 9.544-4.956 50.924-26.593 27.617-44.605-12.165-9.4-27.095-11.868-41.349-12.308-23.88-0.727-47.688 7.148-70.892 12.564-3.86 0.901-7.158-0.307-9.667-2.57-2.253 1.71-5.151 2.417-8.602 1.331-57.917-18.381-119.726 22.139-174.909 46.51-0.788 3.942-3.164 7.414-7.526 8.94-55.716 19.456-106.025 54.221-160.666 76.974-23.030 9.595-46.879 17.234-71.485 16.087-20.163-0.911-38.062-14.152-57.528-14.561-1.423 1.096-3.082 1.915-5.069 2.253-61.809 10.455-146.739 23.767-144.681 117.914 1.669 76.452 74.086 134.666 107.448 193.669 21.258 37.632 37.509 79.135 56.289 118.415 21.043 44.032 42.895 87.511 63.099 132.076 35.686 78.684 65.106 162.642 66.048 252.744 0.174 17.162-22.794 18.012-22.979 0.778-1.075-105.452-43.233-199.967-86.2-290.171-42.783-89.805-80.302-186.163-139.264-263.332-39.188-51.302-86.19-120.965-60.344-193.577 24.136-67.86 84.49-82.207 141.117-91.986 0.973-0.788 2.068-1.495 3.389-1.966 20.818-7.393 38.789-1.864 58.952 5.806 29.256 11.1 56.443 1.208 84.47-9.626 48.998-18.954 93.788-49.644 142.316-69.898 0.932-3.666 3.215-6.902 7.311-8.407 64.369-23.716 135.619-76.759 205.466-54.579 1.69 0.532 3.092 1.382 4.25 2.427 0.635-0.287 1.28-0.543 2.028-0.707 25.518-5.96 50.821-13.128 76.974-13.752 18.749-0.42 50.493 4.987 62.474 24.197 14.408 23.132 6.339 48.732-10.25 67.103z" />
<glyph unicode="&#xe919;" d="M228.854 12.227c-2.857-2.806-6.82-3.953-10.68-2.642-62.935 21.34-106.455 59.863-129.352 114.422-38.953 92.836-3.768 197.478-2.243 201.861 2.355 6.851 9.032 10.168 14.93 7.444 5.878-2.724 8.755-10.476 6.4-17.306-0.492-1.464-32.84-98.591 1.628-180.48 19.968-47.442 58.685-81.213 115.087-100.352 6.093-2.068 9.585-9.462 7.803-16.517-0.655-2.611-1.925-4.803-3.574-6.431z" />
<glyph unicode="&#xe91a;" d="M238.438 75.612c-1.905-1.853-4.608-2.54-7.291-1.505-43.817 16.712-74.639 44.831-91.597 83.548-28.856 65.843-6.892 137.748-5.939 140.78 1.475 4.7 6.011 6.83 10.127 4.751 4.106-2.079 6.257-7.567 4.782-12.247-0.307-1.014-20.46-67.768 5.059-125.88 14.787-33.649 42.199-58.317 81.459-73.318 4.239-1.618 6.81-6.871 5.734-11.745-0.41-1.802-1.239-3.297-2.335-4.383z" />
<glyph unicode="&#xe91b;" d="M209.418-58.317c-4.168-4.106-9.81-6.031-15.135-4.547-86.989 24.125-145.633 73.564-174.346 146.913-48.845 124.754 7.117 272.067 9.533 278.272 3.727 9.626 13.312 14.787 21.412 11.52 8.090-3.256 11.633-13.722 7.905-23.347-0.778-2.028-52.265-138.772-9.052-248.812 25.047-63.785 77.261-107.059 155.208-128.707 8.407-2.335 12.841-12.237 9.902-22.129-1.085-3.656-3.011-6.789-5.427-9.165z" />
<glyph unicode="&#xe91c;" d="M941.025 226.253c0 0-28.856 14.182-31.601 41.687-0.604 5.908-1.249 16.282-1.915 28.856-18.524 3.656-28.764 12.145-36.782 24.791-5.427 8.54-20.521 14.961-30.874 21.78-7.444 4.915-14.060 9.789-19.579 15.032-7.045-0.236-13.937 0-20.695 0.635 0.031-3.062 0.041-5.96 0.051-8.684-3.83-55.378-10.424-124.836-19.436-128.532-15.114-6.216-49.469-52.316-24.719-62.085 24.719-9.748 64.594-21.268 94.833 0 0 0 16.507 5.325 24.74-1.772 8.253-7.096 74.25-20.388 87.972 3.553 13.763 23.951 0 62.085-21.996 64.737z" />
<glyph unicode="&#xe91d;" d="M962.294 675.062c-16.159 27.607-129.3 18.975-151.921 16.097s-22.62 45.988-22.62 45.988c-135.762 58.644-216.576-67.267-210.115-96.584s129.29-17.981 129.29-17.981c20.5 1.372 71.393-20.572 71.096-46.438-0.399-36.229-3.83-31.703 6.492-46.234 8.069-11.387 10.813-120.33 11.735-192.758 9.318-1.669 19.169-1.874 29.768 0.072 14.653 2.693 29.655-3.031 33.966-10.414 7.526-12.841 28.631-22.538 44.288-33.034 5.437 45.804 17.531 150.876 15.002 161.628-3.215 13.804 68.895 141.445 91.515 155.228 22.6 13.804-32.338 36.833-48.497 64.43z" />
<glyph unicode="&#xe91e;" d="M822.948-34.929c0 0 0 92.682-24.545 93.757-24.504 1.065-59.464 21.381-54.927 40.612s-3.482 23.409 9.994 31.488c13.466 8.059 85.811 0 85.811 0s13.619 28.262 42.22 0c0 0 85.862-1.659 81.746 0-4.096 1.659 22.077-25.057 0.143-47.514-21.955-22.436-49.183-43.827-46.479-61.983l-5.417-56.361h-88.545z" />
<glyph unicode="&#xe91f;" d="M769.505-33.28h-17.705l-13.619 58.501c0 0-25.876 18.156-28.621 28.846-2.703 10.701 10.906 27.791 10.906 27.791s51.763-4.27 49.029-43.817c-2.693-39.547 0.010-71.322 0.010-71.322z" />
<glyph unicode="&#xe920;" d="M624.712 927.099c-173.957 71.404-399.084-12.698-429.783-52.367-17.265-22.303-74.455-35.072-121.18-41.984v-196.721c9.308 6.472 18.145 11.756 25.682 16.579 27.3 17.459 68.229 15.872 68.229 15.872 85.258 99.963 156.877 72.98 156.877 72.98 27.31-88.863-143.247-146.934-143.247-158.034 0-6.318-57.661-12.616-107.54-16.876v-90.819c14.623-10.404 59.372-38.318 107.54-29.563 58.849 10.732 153.508-9.513 173.978 16.66 15.78 20.244 37.693 68.188 35.031 97.167 1.464-0.225 2.458-0.379 2.458-0.379-10.22 61.87 115.978 61.235 129.618 61.235 13.65 0 47.739 30.157 23.869 50.78-23.869 20.634 98.918 85.688 98.918 85.688s37.509-1.587 47.749 0c10.25 1.597 105.769 98.376-68.198 169.779zM227.348 496.148c0 0-30.822-22.303-56.289 6.625-10.977 12.483-8.018 24.678-1.126 34.55 52.173 8.909 96.645 15.944 96.645 15.944 0.952 0.471 2.038 0.84 3.021 1.28-2.796-22.067-11.991-58.399-42.25-58.399z" />
<glyph unicode="&#xe921;" d="M-0.276 820.111c0 0 313.201-77.22 338.452-110.807 25.252-33.577 77.373-151.9 127.232-164.004 49.889-12.114 116.593 25.129 123.361 65.085 6.779 39.967 64.471 143.462 10.691 169.503-53.77 26.030-7.393 86.794-237.056 107.131-229.683 20.347-324.301 63.99-328.817 61.245-4.516-2.755-33.864-128.154-33.864-128.154z" />
<glyph unicode="&#xe922;" d="M638.771 724.541c0 0 6.789-143.575-11.53-151.398-18.299-7.834 7.844-135.342 33.669-138.998 25.825-3.645 68.884 101.97 62.515 233.39 0 0-36.239 92.037-84.654 57.006z" />
<glyph unicode="&#xe923;" d="M471.020 514.847c0 0-107.295 2.028-132.751-48.568s23.654-91.075 23.654-91.075 54.497-8.1 39.055-439.173h127.59c0 0 7.916 268.646 107.93 501.637 0 0 7.281 52.89-65.464 65.034s-100.014 12.145-100.014 12.145z" />
<glyph unicode="&#xe924;" d="M329.4 379.249c0 0-76.37-109.281-70.922-441.19h25.457c0 0 69.11 315.72 94.566 333.937 0.010 0-18.176 119.409-49.101 107.254z" />
<glyph unicode="&#xe925;" d="M875.663 901.724c-1.014 1.106-2.068 2.109-3.092 3.185l-25.364-29.020c1.034-1.075 2.079-2.089 3.103-3.185 136.581-147.814 139.643-391.752 6.81-543.734l26.081-28.232c146.801 168.008 143.421 437.606-7.537 600.986z" />
<glyph unicode="&#xe926;" d="M824.955 843.694c-1.024 1.096-2.058 2.109-3.092 3.174l-25.375-29.010c1.044-1.075 2.089-2.089 3.103-3.185 107.827-116.705 110.254-309.279 5.386-429.292h-0.010l26.081-28.211c118.845 135.997 116.111 354.263-6.093 486.523z" />
<glyph unicode="&#xe927;" d="M774.236 785.644c-1.024 1.106-2.068 2.12-3.103 3.195l5.366-29.030c1.034-1.065 2.079-2.089 3.092-3.174 36.956-40.008 41.032-272.374 3.953-314.808l-4.649-28.221c90.88 104.018 88.791 270.899-4.659 372.040z" />
<glyph unicode="&#xe928;" d="M853.279 323.891c0 0-56.893-11.141-59.894 17.674-2.99 28.805 34.427 152.545 97.311 94.925 0 0 0-48.026 10.476-45.22 10.476 2.847 62.863 11.305 70.349-15.811 7.485-27.105 32.922-64.389 22.467-77.957-10.476-13.558-37.427-138.967-35.942-152.535 1.505-13.558-5.97-179.651-5.97-179.651h-57.221c0 0 1.833 247.306-5.642 243.149-7.485-4.178-16.486 34.806-3.011 55.153 13.466 20.316-23.439 61.614-32.922 60.273z" />
<glyph unicode="&#xe929;" d="M266.271 322.98c0 0 56.873-11.131 59.873 17.695 3 28.815-34.437 152.535-97.29 94.904 0 0 0-48.015-10.476-45.179-10.465 2.806-62.863 11.295-70.339-15.831-7.485-27.105-32.942-64.41-22.467-77.967 10.476-13.568 37.427-138.988 35.922-152.535-1.495-13.558 6.001-179.661 6.001-179.661h57.211c0 0-1.833 247.316 5.652 243.159 7.475-4.157 16.456 34.816 2.99 55.142-13.486 20.326 23.429 61.624 32.922 60.273z" />
<glyph unicode="&#xe92a;" d="M920.924 900.977c-101.796 99.42-233.513-17.664-251.474-72.899-17.971-55.224-109.773-68.485-109.773-68.485v-0.84c-3.871 0.594-92.017 14.438-109.578 68.454-17.981 55.235-149.688 172.319-251.484 72.899-101.775-99.41-45.906-234.168-39.905-236.38 5.98-2.191 27.945 0 27.945 0s71.834-90.573 57.866-119.296c-13.957-28.713 5.99-70.687 13.967-70.687 7.987 0 81.828-19.876 75.837-106.035 0 0 0.594 0.225 1.454 0.553-1.567-40.366 11.254-107.121 20.5-135.301 11.981-36.454 67.369-8.294 101.786-23.183 34.427-14.92 65.864 46.377 65.864 46.377l19.876 45.22c4.547-2.468 8.315-4.69 11.121-6.666 0.84-4.71 2.243-6.554 4.444-3.779 0.164-0.164 0.358-0.369 0.481-0.532 2.662-3.758 4.209-0.952 5.018 5.396 2.775 1.925 6.451 4.086 10.844 6.461l19.866-45.21c0 0 31.437-61.317 65.864-46.397 34.437 14.92 89.815-13.261 101.796 23.183 9.236 28.18 22.057 94.935 20.5 135.291 0.85-0.307 1.444-0.522 1.444-0.522-5.97 86.149 67.871 106.025 75.858 106.025 7.977 0 27.945 41.984 13.967 70.697-13.967 28.703 57.876 119.296 57.876 119.296s21.955-2.212 27.945 0c5.99 2.191 61.88 136.96-39.905 236.36zM653.476 540.897c49.9 139.172 91.802 101.622 91.802 101.622 15.954-123.72-83.814-225.321-83.814-240.794 0-12.216-65.341-24.422-92.815-29.030v51.2c14.162 52.244 32.492 75.991 44.923 94.904 15.974 24.32 39.905 22.098 39.905 22.098zM374.241 641.638c0 0 41.912 37.55 91.822-101.632 0 0 23.941 2.222 39.916-22.077 12.431-18.913 30.74-42.65 44.902-94.925v-51.18c-27.474 4.588-92.805 16.783-92.805 29.010-0.010 15.473-99.799 117.094-83.835 240.804zM464.067 288.584c-14.909-40.305-32.942-9.236-32.942-9.236-17.715 0-23.091 50.575-24.74 81.316 0.594-0.625 1.219-1.137 1.782-1.802 0 0 26.030-9.81 56.556-22.19 4.024-13.722 5.755-30.71-0.655-48.087zM688.404 280.218c0 0-18.043-31.037-32.922 9.216-6.441 17.388-4.69 34.376-0.666 48.108 30.515 12.39 56.535 22.2 56.535 22.2 0.563 0.666 1.198 1.167 1.782 1.792-1.638-30.74-7.025-81.316-24.73-81.316z" />
<glyph unicode="&#xe92b;" d="M71.281 263.311c-2.406 0.379-4.588 2.642-5.663 6.328-17.51 60.252-19.436 116.593-5.755 167.496 23.296 86.548 83.087 124.989 85.606 126.577 3.932 2.478 8.192-0.461 9.523-6.564 1.321-6.083-0.788-13.025-4.71-15.493-0.829-0.522-56.187-36.465-76.687-112.896-11.899-44.278-9.964-94.116 5.745-148.101 1.7-5.837 0-13.015-3.789-16.056-1.382-1.137-2.867-1.526-4.27-1.29z" />
<glyph unicode="&#xe92c;" d="M102.523 295.363c-1.608 0.256-3.062 1.853-3.748 4.495-11.397 43.1-12.401 83.548-2.99 120.156 16.015 62.31 56.156 90.399 57.856 91.546 2.642 1.823 5.468-0.266 6.328-4.628 0.85-4.352-0.584-9.359-3.226-11.151-0.563-0.389-37.734-26.624-51.825-81.654-8.182-31.887-7.127-67.625 3.082-106.26 1.096-4.178-0.072-9.339-2.611-11.551-0.952-0.799-1.925-1.096-2.867-0.952z" />
<glyph unicode="&#xe92d;" d="M32.788 234.158c-3.533 0.584-6.748 3.615-8.366 8.52-26.522 79.944-30.188 154.358-10.906 221.225 32.799 113.674 119.695 163 123.382 165.038 5.724 3.174 11.981-0.809 14.019-8.878 2.028-8.059-0.952-17.193-6.666-20.357-1.208-0.686-81.664-46.817-110.541-147.2-16.722-58.173-13.158-123.996 10.619-195.635 2.56-7.721 0.184-17.172-5.304-21.094-2.028-1.444-4.178-1.946-6.236-1.618z" />
<glyph unicode="&#xe92e;" d="M538.46 656.036c8.929 3.717 35.717-7.444 35.717-3.717 7.117 20.756 25.641 36.782 59.965 48.087-14.848 122.706-9.574 258.519-12.605 259.789-4.485 1.864-147.364 0-147.364 0s14.561-218.429 11.479-339.927c46.223-3.625 20.726 19.067 52.808 35.768z" />
<glyph unicode="&#xe92f;" d="M670.648 519.26c-18.401 36.557-29.614 90.696-36.495 147.661-34.335-11.305-52.849-27.331-59.965-48.087 0-3.717-26.788 7.455-35.717 3.717-32.082-16.701-6.584-39.404-52.808-35.768-1.096-43.295-4.434-74.281-11.479-78.684-26.788-16.753-133.949-57.682-129.495-83.732 4.475-26.051 66.99-53.965 111.636-52.091 44.646 1.864 174.141-13.025 183.081 16.742 8.919 29.768 89.293 14.879 31.242 130.243z" />
<glyph unicode="&#xe930;" d="M818.002 429.947c0 0-35.717 43.725-98.243 29.768 0 0-5.079-66.048-28.221-68.844-23.122-2.785-3.031-62.331 28.221-65.116 31.263-2.785 93.778 43.725 98.243 104.192z" />
<glyph unicode="&#xe931;" d="M526.602-52.849c0 0 9.718 272.333 132.516 379.433 0 0 8.919 24.3-80.384 29.88s-122.788 5.581-122.788 5.581-131.727 0.932-162.99-22.333c-31.252-23.255 29.020-41.861 29.020-41.861s66.918-152.545 47.974-350.7z" />
<glyph unicode="&#xe932;" d="M199.475-63.078c0 0 84.838 301.414 116.091 309.78 0 0-22.323 54.876-60.283 49.285z" />
</font>
</defs>
</svg>
